<svg version="1.0" xmlns="http://www.w3.org/2000/svg" viewBox="0 0 340 250" color-interpolation-filters="sRGB" style="margin:auto">
  <g fill="#333" class="icon-text-wrapper icon-svg-group iconsvg">
    <g transform="translate(48.575 100.639)" class="iconsvg-imagesvg">
      <path class="image-rect" fill="none" d="M0 0h60v48.723H0z"/>
      <svg width="60" height="48.723" class="image-svg-svg primary" style="overflow:visible">
        <svg xmlns="http://www.w3.org/2000/svg" viewBox="0.219 0.01 121.422 98.6">
          <title>资源 322</title>
          <path d="M44 27.88a20.3 20.3 0 0 1-3.4-10.95l-9 13.35L2.84 72.92a16.55 16.55 0 0 0 27.43 18.51l.87-1.28a1.3 1.3 0 0 1 .18-.23L58.6 49.45zM56.79.5c-.27.07-.56.14-.83.23s-.65.21-1 .33-.62.24-.93.37a18 18 0 0 0-2.52 1.41l-.42.3a4 4 0 0 0-.39.29c-.37.28-.51.39-.64.51-.39.33-.69.61-1 .9s-.56.59-.81.88-.4.48-.57.7-.45.59-.66.89a16.6 16.6 0 0 0 0 18.51l21.63 32a2 2 0 0 1 .18.32l6.47 9.55 15.38-25v-.05l3.63-5.89L79.25 14.3a2 2 0 0 1-.14-.2l-4.59-6.8a16.7 16.7 0 0 0-2-2.44c-.23-.23-.47-.47-.74-.7a19 19 0 0 0-1.72-1.34c-.19-.13-.43-.27-.67-.42s-.63-.38-.92-.53h-.08l-.19-.09c-.2-.1-.41-.21-.62-.3a17.3 17.3 0 0 0-2.84-1l-.92-.2c-.34-.05-.68-.11-1-.15s-.66-.07-1-.09a16 16 0 0 0-1.93 0q-.51 0-1 .09c-.32 0-.58.07-.85.12h-.26l-.62.14"/>
          <path d="M118.73 91.54a16.55 16.55 0 0 0 .08-18.63L96.68 40.13l-2.76 4.48-33.22 54h45.08a16.43 16.43 0 0 0 12.8-6.92" fill="#eb6621"/>
        </svg>
      </svg>
    </g>
    <path d="M132.825 133.3h-6.1v-9.64q0-1.76-.51-2.66-.51-.89-1.63-.89-1.54 0-2.23 1.23t-.69 4.22v7.74h-6.09v-17.67h4.6l.76 2.18h.36q.78-1.25 2.16-1.87t3.17-.62q2.94 0 4.57 1.7t1.63 4.79zm8.96-.25-6.95-17.42h6.42l3 10.14q.22.79.29 1.92h.13q.12-1.08.37-1.89l3.08-10.17h6.22l-6.99 18.79q-1.34 3.59-3.3 5.07-1.95 1.48-5.11 1.48-1.21 0-2.49-.26v-4.79q.83.19 1.89.19.81 0 1.42-.31.6-.32 1.06-.89.45-.57.96-1.86m30.42.25h-4.23l-1.17-2.34h-.12q-1.24 1.53-2.52 2.09-1.27.56-3.3.56-2.5 0-3.93-1.5-1.44-1.49-1.44-4.21 0-2.82 1.97-4.2 1.96-1.38 5.69-1.55l2.95-.1v-.24q0-2.19-2.15-2.19-1.94 0-4.92 1.31l-1.76-4.02q3.09-1.59 7.8-1.59 3.4 0 5.26 1.68 1.87 1.69 1.87 4.71zm-8.75-3.99q1.1 0 1.89-.7.79-.71.79-1.83v-1.37l-1.4.06q-3.01.11-3.01 2.22 0 1.62 1.73 1.62m17.71 3.74-6.95-17.42h6.42l3 10.14q.22.79.3 1.92h.12q.12-1.08.37-1.89l3.08-10.17h6.22l-6.99 18.79q-1.34 3.59-3.3 5.07-1.95 1.48-5.1 1.48-1.22 0-2.5-.26v-4.79q.83.19 1.89.19.81 0 1.42-.31.61-.32 1.06-.89t.96-1.86m30.42.25h-4.23l-1.17-2.34h-.12q-1.24 1.53-2.51 2.09-1.28.56-3.31.56-2.5 0-3.93-1.5-1.44-1.49-1.44-4.21 0-2.82 1.97-4.2 1.96-1.38 5.69-1.55l2.95-.1v-.24q0-2.19-2.15-2.19-1.94 0-4.92 1.31l-1.76-4.02q3.09-1.59 7.8-1.59 3.4 0 5.26 1.68 1.87 1.69 1.87 4.71zm-8.75-3.99q1.11 0 1.89-.7.79-.71.79-1.83v-1.37l-1.4.06q-3.01.11-3.01 2.22 0 1.62 1.73 1.62m18.68-5.95h.13q1.11-1.76 1.88-2.74l3.97-4.99h6.8l-6.13 7.52 6.52 10.15h-6.98l-3.86-6.33-1.98 1.51v4.82h-6.13v-24.27h6.13v9.55q0 2.45-.35 4.78m32.15 1.07q0 4.33-2.33 6.76-2.34 2.42-6.53 2.42-4.03 0-6.4-2.48-2.38-2.48-2.38-6.7 0-4.32 2.33-6.72 2.33-2.39 6.54-2.39 2.61 0 4.6 1.1 2 1.11 3.08 3.18 1.09 2.06 1.09 4.83m-11.45 0q0 2.27.61 3.47.61 1.19 2.04 1.19 1.42 0 2.01-1.19.58-1.2.58-3.47t-.59-3.42q-.6-1.15-2.03-1.15-1.4 0-2.01 1.14-.61 1.15-.61 3.43m28.57 3.44q0 2.84-1.93 4.29-1.94 1.45-5.55 1.45-1.97 0-3.42-.21t-2.96-.77v-4.88q1.42.62 3.11 1.03 1.69.4 3.02.4 1.98 0 1.98-.9 0-.47-.56-.84-.55-.36-3.22-1.42-2.43-1-3.4-2.27-.96-1.27-.96-3.22 0-2.47 1.9-3.84t5.38-1.37q1.75 0 3.28.38 1.54.38 3.19 1.11l-1.65 3.93q-1.22-.54-2.57-.92-1.36-.39-2.22-.39-1.5 0-1.5.74 0 .45.53.77.52.32 3.01 1.3 1.86.77 2.77 1.5t1.34 1.72.43 2.41m20.64 5.43h-6.13v-9.64q0-3.55-2.11-3.55-1.5 0-2.21 1.25-.7 1.26-.7 4.17v7.77h-6.1v-24.27h6.1v3.45q0 2.34-.25 5.33h.28q.87-1.37 2.07-1.93t2.79-.56q2.97 0 4.61 1.7 1.65 1.71 1.65 4.79z" data-gra="path-name" class="tp-name iconsvg-namesvg"/>
  </g>
</svg>
